<?xml version="1.0" encoding="UTF-8"?>
<svg id="Layer_1" data-name="Layer 1" xmlns="http://www.w3.org/2000/svg" version="1.1" viewBox="0 0 612 792">
  <defs>
    <style>
      .cls-1 {
        fill: #fbb040;
        stroke: #231f20;
        stroke-miterlimit: 10;
        stroke-width: 2px;
      }
    </style>
  </defs>
  <polygon class="cls-1" points="431.51 208.44 170.16 208.63 170.23 307.86 170.42 558.77 431.77 558.57 431.66 404.4 431.58 307.67 431.51 208.44"/>
  <line class="cls-1" x1="169.94" y1="404.82" x2="431.66" y2="404.4"/>
  <line class="cls-1" x1="431.58" y1="307.67" x2="170.23" y2="307.86"/>
  <line class="cls-1" x1="439.28" y1="404.51" x2="442.68" y2="404.51"/>
  <line class="cls-1" x1="434.59" y1="404.51" x2="438" y2="404.51"/>
  <line class="cls-1" x1="443.85" y1="404.5" x2="447.25" y2="404.5"/>
  <line class="cls-1" x1="159.39" y1="404.83" x2="162.8" y2="404.83"/>
  <line class="cls-1" x1="154.71" y1="404.83" x2="158.11" y2="404.83"/>
  <line class="cls-1" x1="163.97" y1="404.83" x2="167.37" y2="404.82"/>
  <line class="cls-1" x1="159.3" y1="208.64" x2="162.71" y2="208.64"/>
  <line class="cls-1" x1="154.62" y1="208.64" x2="158.02" y2="208.64"/>
  <line class="cls-1" x1="163.87" y1="208.64" x2="167.28" y2="208.64"/>
  <line class="cls-1" x1="439.07" y1="208.43" x2="442.48" y2="208.43"/>
  <line class="cls-1" x1="434.39" y1="208.43" x2="437.79" y2="208.43"/>
  <line class="cls-1" x1="443.65" y1="208.43" x2="447.05" y2="208.43"/>
</svg>